<?xml version="1.0" encoding="utf-8" standalone="no"?>
<!DOCTYPE svg PUBLIC "-//W3C//DTD SVG 1.1//EN"
  "http://www.w3.org/Graphics/SVG/1.1/DTD/svg11.dtd">
<svg xmlns:xlink="http://www.w3.org/1999/xlink" width="347.065041pt" height="347.088142pt" viewBox="0 0 347.065041 347.088142" xmlns="http://www.w3.org/2000/svg" version="1.1">
 <metadata>
  <rdf:RDF xmlns:dc="http://purl.org/dc/elements/1.1/" xmlns:cc="http://creativecommons.org/ns#" xmlns:rdf="http://www.w3.org/1999/02/22-rdf-syntax-ns#">
   <cc:Work>
    <dc:type rdf:resource="http://purl.org/dc/dcmitype/StillImage"/>
    <dc:date>2022-11-28T15:26:37.283018</dc:date>
    <dc:format>image/svg+xml</dc:format>
    <dc:creator>
     <cc:Agent>
      <dc:title>Matplotlib v3.6.2, https://matplotlib.org/</dc:title>
     </cc:Agent>
    </dc:creator>
   </cc:Work>
  </rdf:RDF>
 </metadata>
 <defs>
  <style type="text/css">*{stroke-linejoin: round; stroke-linecap: butt}</style>
 </defs>
 <g id="figure_1">
  <g id="patch_1">
   <path d="M 0 347.088142 
L 347.065041 347.088142 
L 347.065041 0 
L 0 0 
z
" style="fill: #ffffff"/>
  </g>
  <g id="axes_1">
   <g id="patch_2">
    <path d="M 32.274426 175.055269 
C 32.268865 174.543532 32.266084 174.031768 32.266084 173.52 
C 32.266084 173.008232 32.268865 172.496468 32.274426 171.984731 
C 32.252173 172.496185 32.241043 173.008062 32.241043 173.52 
C 32.241043 174.031938 32.252173 174.543815 32.274426 175.055269 
" clip-path="url(#p5526edeb7e)" style="fill: #ff0000; opacity: 0.4"/>
   </g>
   <g id="patch_3">
    <path d="M 32.274426 171.984731 
C 32.473228 167.415502 33.557654 162.928086 35.467332 158.772307 
C 37.37701 154.616528 40.075831 150.870964 43.413546 147.74414 
C 46.751261 144.617316 50.664759 142.168354 54.936167 140.533593 
C 59.207575 138.898832 63.756128 138.109183 68.328599 138.208608 
C 72.901069 138.308032 77.410999 139.29465 81.60731 141.113534 
C 85.803622 142.932418 89.60697 145.549177 92.805614 148.818128 
C 96.004258 152.08708 98.537717 155.946416 100.264948 160.181276 
C 101.992178 164.416137 102.880522 168.946449 102.880522 173.52 
C 102.880522 178.093551 101.992178 182.623863 100.264948 186.858724 
C 98.537717 191.093584 96.004258 194.95292 92.805614 198.221872 
C 89.60697 201.490823 85.803622 204.107582 81.60731 205.926466 
C 77.410999 207.74535 72.901069 208.731968 68.328599 208.831392 
C 63.756128 208.930817 59.207575 208.141168 54.936167 206.506407 
C 50.664759 204.871646 46.751261 202.422684 43.413546 199.29586 
C 40.075831 196.169036 37.37701 192.423472 35.467332 188.267693 
C 33.557654 184.111914 32.473228 179.624498 32.274426 175.055269 
C 32.475334 193.542179 36.303144 211.811142 43.540289 228.823781 
C 50.777435 245.836421 61.284152 261.264189 74.463257 274.230197 
C 87.642362 287.196205 103.23934 297.450054 120.367685 304.408932 
C 137.49603 311.36781 155.824959 314.897327 174.312687 314.796871 
C 192.800415 314.696416 211.089907 310.967928 228.141619 303.823328 
C 245.193331 296.678729 260.67796 286.255994 273.715386 273.147535 
C 286.752812 260.039076 297.091256 244.498043 304.143099 227.407762 
C 311.194942 210.317482 314.823998 192.008001 314.823998 173.52 
C 314.823998 155.031999 311.194942 136.722518 304.143099 119.632238 
C 297.091256 102.541957 286.752812 87.000924 273.715386 73.892465 
C 260.67796 60.784006 245.193331 50.361271 228.141619 43.216672 
C 211.089907 36.072072 192.800415 32.343584 174.312687 32.243129 
C 155.824959 32.142673 137.49603 35.67219 120.367685 42.631068 
C 103.23934 49.589946 87.642362 59.843795 74.463257 72.809803 
C 61.284152 85.775811 50.777435 101.203579 43.540289 118.216219 
C 36.303144 135.228858 32.475334 153.497821 32.274426 171.984731 
" clip-path="url(#p5526edeb7e)" style="fill: #008000; opacity: 0.4"/>
   </g>
   <g id="patch_4">
    <path d="M 32.274426 175.055269 
C 32.473228 179.624498 33.557654 184.111914 35.467332 188.267693 
C 37.37701 192.423472 40.075831 196.169036 43.413546 199.29586 
C 46.751261 202.422684 50.664759 204.871646 54.936167 206.506407 
C 59.207575 208.141168 63.756128 208.930817 68.328599 208.831392 
C 72.901069 208.731968 77.410999 207.74535 81.60731 205.926466 
C 85.803622 204.107582 89.60697 201.490823 92.805614 198.221872 
C 96.004258 194.95292 98.537717 191.093584 100.264948 186.858724 
C 101.992178 182.623863 102.880522 178.093551 102.880522 173.52 
C 102.880522 168.946449 101.992178 164.416137 100.264948 160.181276 
C 98.537717 155.946416 96.004258 152.08708 92.805614 148.818128 
C 89.60697 145.549177 85.803622 142.932418 81.60731 141.113534 
C 77.410999 139.29465 72.901069 138.308032 68.328599 138.208608 
C 63.756128 138.109183 59.207575 138.898832 54.936167 140.533593 
C 50.664759 142.168354 46.751261 144.617316 43.413546 147.74414 
C 40.075831 150.870964 37.37701 154.616528 35.467332 158.772307 
C 33.557654 162.928086 32.473228 167.415502 32.274426 171.984731 
C 32.268865 172.496468 32.266084 173.008232 32.266084 173.52 
C 32.266084 174.031768 32.268865 174.543532 32.274426 175.055269 
" clip-path="url(#p5526edeb7e)" style="fill: #b25900; opacity: 0.4"/>
   </g>
   <g id="text_1">
    <!-- 0 -->
    <g style="fill: #262626" transform="translate(12.775188 177.383125) scale(0.14 -0.14)">
     <defs>
      <path id="DejaVuSans-30" d="M 2034 4250 
Q 1547 4250 1301 3770 
Q 1056 3291 1056 2328 
Q 1056 1369 1301 889 
Q 1547 409 2034 409 
Q 2525 409 2770 889 
Q 3016 1369 3016 2328 
Q 3016 3291 2770 3770 
Q 2525 4250 2034 4250 
z
M 2034 4750 
Q 2819 4750 3233 4129 
Q 3647 3509 3647 2328 
Q 3647 1150 3233 529 
Q 2819 -91 2034 -91 
Q 1250 -91 836 529 
Q 422 1150 422 2328 
Q 422 3509 836 4129 
Q 1250 4750 2034 4750 
z
" transform="scale(0.015625)"/>
     </defs>
     <use xlink:href="#DejaVuSans-30"/>
    </g>
   </g>
   <g id="text_2">
    <!-- 15 -->
    <g style="fill: #262626" transform="translate(199.94476 177.383125) scale(0.14 -0.14)">
     <defs>
      <path id="DejaVuSans-31" d="M 794 531 
L 1825 531 
L 1825 4091 
L 703 3866 
L 703 4441 
L 1819 4666 
L 2450 4666 
L 2450 531 
L 3481 531 
L 3481 0 
L 794 0 
L 794 531 
z
" transform="scale(0.015625)"/>
      <path id="DejaVuSans-35" d="M 691 4666 
L 3169 4666 
L 3169 4134 
L 1269 4134 
L 1269 2991 
Q 1406 3038 1543 3061 
Q 1681 3084 1819 3084 
Q 2600 3084 3056 2656 
Q 3513 2228 3513 1497 
Q 3513 744 3044 326 
Q 2575 -91 1722 -91 
Q 1428 -91 1123 -41 
Q 819 9 494 109 
L 494 744 
Q 775 591 1075 516 
Q 1375 441 1709 441 
Q 2250 441 2565 725 
Q 2881 1009 2881 1497 
Q 2881 1984 2565 2268 
Q 2250 2553 1709 2553 
Q 1456 2553 1204 2497 
Q 953 2441 691 2322 
L 691 4666 
z
" transform="scale(0.015625)"/>
     </defs>
     <use xlink:href="#DejaVuSans-31"/>
     <use xlink:href="#DejaVuSans-35" x="63.623047"/>
    </g>
   </g>
   <g id="text_3">
    <!-- 1 -->
    <g style="fill: #262626" transform="translate(63.119553 177.383125) scale(0.14 -0.14)">
     <use xlink:href="#DejaVuSans-31"/>
    </g>
   </g>
   <g id="text_4">
    <!-- local -->
    <g style="fill: #262626" transform="translate(28.414157 230.435049) scale(0.168 -0.168)">
     <defs>
      <path id="DejaVuSans-6c" d="M 603 4863 
L 1178 4863 
L 1178 0 
L 603 0 
L 603 4863 
z
" transform="scale(0.015625)"/>
      <path id="DejaVuSans-6f" d="M 1959 3097 
Q 1497 3097 1228 2736 
Q 959 2375 959 1747 
Q 959 1119 1226 758 
Q 1494 397 1959 397 
Q 2419 397 2687 759 
Q 2956 1122 2956 1747 
Q 2956 2369 2687 2733 
Q 2419 3097 1959 3097 
z
M 1959 3584 
Q 2709 3584 3137 3096 
Q 3566 2609 3566 1747 
Q 3566 888 3137 398 
Q 2709 -91 1959 -91 
Q 1206 -91 779 398 
Q 353 888 353 1747 
Q 353 2609 779 3096 
Q 1206 3584 1959 3584 
z
" transform="scale(0.015625)"/>
      <path id="DejaVuSans-63" d="M 3122 3366 
L 3122 2828 
Q 2878 2963 2633 3030 
Q 2388 3097 2138 3097 
Q 1578 3097 1268 2742 
Q 959 2388 959 1747 
Q 959 1106 1268 751 
Q 1578 397 2138 397 
Q 2388 397 2633 464 
Q 2878 531 3122 666 
L 3122 134 
Q 2881 22 2623 -34 
Q 2366 -91 2075 -91 
Q 1284 -91 818 406 
Q 353 903 353 1747 
Q 353 2603 823 3093 
Q 1294 3584 2113 3584 
Q 2378 3584 2631 3529 
Q 2884 3475 3122 3366 
z
" transform="scale(0.015625)"/>
      <path id="DejaVuSans-61" d="M 2194 1759 
Q 1497 1759 1228 1600 
Q 959 1441 959 1056 
Q 959 750 1161 570 
Q 1363 391 1709 391 
Q 2188 391 2477 730 
Q 2766 1069 2766 1631 
L 2766 1759 
L 2194 1759 
z
M 3341 1997 
L 3341 0 
L 2766 0 
L 2766 531 
Q 2569 213 2275 61 
Q 1981 -91 1556 -91 
Q 1019 -91 701 211 
Q 384 513 384 1019 
Q 384 1609 779 1909 
Q 1175 2209 1959 2209 
L 2766 2209 
L 2766 2266 
Q 2766 2663 2505 2880 
Q 2244 3097 1772 3097 
Q 1472 3097 1187 3025 
Q 903 2953 641 2809 
L 641 3341 
Q 956 3463 1253 3523 
Q 1550 3584 1831 3584 
Q 2591 3584 2966 3190 
Q 3341 2797 3341 1997 
z
" transform="scale(0.015625)"/>
     </defs>
     <use xlink:href="#DejaVuSans-6c"/>
     <use xlink:href="#DejaVuSans-6f" x="27.783203"/>
     <use xlink:href="#DejaVuSans-63" x="88.964844"/>
     <use xlink:href="#DejaVuSans-61" x="143.945312"/>
     <use xlink:href="#DejaVuSans-6c" x="205.224609"/>
    </g>
   </g>
   <g id="text_5">
    <!-- external -->
    <g style="fill: #262626" transform="translate(173.545041 336.394267) scale(0.168 -0.168)">
     <defs>
      <path id="DejaVuSans-65" d="M 3597 1894 
L 3597 1613 
L 953 1613 
Q 991 1019 1311 708 
Q 1631 397 2203 397 
Q 2534 397 2845 478 
Q 3156 559 3463 722 
L 3463 178 
Q 3153 47 2828 -22 
Q 2503 -91 2169 -91 
Q 1331 -91 842 396 
Q 353 884 353 1716 
Q 353 2575 817 3079 
Q 1281 3584 2069 3584 
Q 2775 3584 3186 3129 
Q 3597 2675 3597 1894 
z
M 3022 2063 
Q 3016 2534 2758 2815 
Q 2500 3097 2075 3097 
Q 1594 3097 1305 2825 
Q 1016 2553 972 2059 
L 3022 2063 
z
" transform="scale(0.015625)"/>
      <path id="DejaVuSans-78" d="M 3513 3500 
L 2247 1797 
L 3578 0 
L 2900 0 
L 1881 1375 
L 863 0 
L 184 0 
L 1544 1831 
L 300 3500 
L 978 3500 
L 1906 2253 
L 2834 3500 
L 3513 3500 
z
" transform="scale(0.015625)"/>
      <path id="DejaVuSans-74" d="M 1172 4494 
L 1172 3500 
L 2356 3500 
L 2356 3053 
L 1172 3053 
L 1172 1153 
Q 1172 725 1289 603 
Q 1406 481 1766 481 
L 2356 481 
L 2356 0 
L 1766 0 
Q 1100 0 847 248 
Q 594 497 594 1153 
L 594 3053 
L 172 3053 
L 172 3500 
L 594 3500 
L 594 4494 
L 1172 4494 
z
" transform="scale(0.015625)"/>
      <path id="DejaVuSans-72" d="M 2631 2963 
Q 2534 3019 2420 3045 
Q 2306 3072 2169 3072 
Q 1681 3072 1420 2755 
Q 1159 2438 1159 1844 
L 1159 0 
L 581 0 
L 581 3500 
L 1159 3500 
L 1159 2956 
Q 1341 3275 1631 3429 
Q 1922 3584 2338 3584 
Q 2397 3584 2469 3576 
Q 2541 3569 2628 3553 
L 2631 2963 
z
" transform="scale(0.015625)"/>
      <path id="DejaVuSans-6e" d="M 3513 2113 
L 3513 0 
L 2938 0 
L 2938 2094 
Q 2938 2591 2744 2837 
Q 2550 3084 2163 3084 
Q 1697 3084 1428 2787 
Q 1159 2491 1159 1978 
L 1159 0 
L 581 0 
L 581 3500 
L 1159 3500 
L 1159 2956 
Q 1366 3272 1645 3428 
Q 1925 3584 2291 3584 
Q 2894 3584 3203 3211 
Q 3513 2838 3513 2113 
z
" transform="scale(0.015625)"/>
     </defs>
     <use xlink:href="#DejaVuSans-65"/>
     <use xlink:href="#DejaVuSans-78" x="59.773438"/>
     <use xlink:href="#DejaVuSans-74" x="118.953125"/>
     <use xlink:href="#DejaVuSans-65" x="158.162109"/>
     <use xlink:href="#DejaVuSans-72" x="219.685547"/>
     <use xlink:href="#DejaVuSans-6e" x="259.048828"/>
     <use xlink:href="#DejaVuSans-61" x="322.427734"/>
     <use xlink:href="#DejaVuSans-6c" x="383.707031"/>
    </g>
   </g>
  </g>
 </g>
 <defs>
  <clipPath id="p5526edeb7e">
   <rect x="7.2" y="7.2" width="332.665041" height="332.64"/>
  </clipPath>
 </defs>
</svg>
